<?xml version="1.0" standalone="no"?>
<!DOCTYPE svg PUBLIC "-//W3C//DTD SVG 20010904//EN"
 "http://www.w3.org/TR/2001/REC-SVG-20010904/DTD/svg10.dtd">
<svg version="1.0" xmlns="http://www.w3.org/2000/svg"
 width="1024.000000pt" height="896.000000pt" viewBox="0 0 1024.000000 896.000000"
 preserveAspectRatio="xMidYMid meet">

<g transform="translate(0.000000,896.000000) scale(0.100000,-0.100000)"
fill="#000000" stroke="none">
<path d="M332 5358 l3 -3263 2245 -3 c1491 -2 2302 1 2415 8 222 13 396 35
575 70 1005 199 1574 770 1608 1615 l7 160 1143 3 1142 2 0 -1575 0 -1575
-3200 0 -3200 0 0 -220 0 -220 3428 2 3427 3 0 3845 0 3845 -227 3 -228 2 0
-1840 0 -1840 -1176 2 -1177 3 -42 112 c-80 210 -173 353 -339 519 -222 222
-475 358 -831 449 l-130 33 45 12 c257 67 489 178 659 315 412 328 591 860
490 1454 -73 433 -321 785 -716 1018 -247 145 -539 238 -933 296 -145 21 -152
21 -2568 24 l-2422 4 2 -3263z m4834 2877 c330 -35 567 -99 794 -216 448 -230
671 -620 647 -1129 -31 -641 -498 -1068 -1297 -1184 -228 -34 -386 -36 -2487
-36 l-2103 0 0 1290 0 1290 2150 0 c1861 0 2170 -2 2296 -15z m-88 -2940 c709
-65 1209 -287 1486 -659 45 -60 136 -224 136 -245 0 -8 -391 -11 -1495 -11
l-1495 0 0 -215 0 -215 1540 0 c1352 0 1541 -2 1546 -15 11 -28 -16 -280 -40
-380 -23 -94 -76 -234 -109 -287 -143 -230 -282 -367 -501 -492 -303 -175
-710 -278 -1196 -306 -116 -6 -942 -10 -2207 -10 l-2023 0 0 1425 0 1425 2098
0 c1782 0 2121 -2 2260 -15z"/>
</g>
</svg>
